<?xml version="1.0" encoding="UTF-8" standalone="no"?>
<!-- Created with Inkscape (http://www.inkscape.org/) -->

<svg
   xmlns:dc="http://purl.org/dc/elements/1.1/"
   xmlns:cc="http://creativecommons.org/ns#"
   xmlns:rdf="http://www.w3.org/1999/02/22-rdf-syntax-ns#"
   xmlns:svg="http://www.w3.org/2000/svg"
   xmlns="http://www.w3.org/2000/svg"
   xmlns:sodipodi="http://sodipodi.sourceforge.net/DTD/sodipodi-0.dtd"
   xmlns:inkscape="http://www.inkscape.org/namespaces/inkscape"
   id="svg2"
   version="1.1"
   inkscape:version="0.91 r13725"
   xml:space="preserve"
   width="163.01955"
   height="169.24057"
   viewBox="0 0 163.01955 169.24057"
   sodipodi:docname="Datum_local.svg"><metadata
     id="metadata8"><rdf:RDF><cc:Work
         rdf:about=""><dc:format>image/svg+xml</dc:format><dc:type
           rdf:resource="http://purl.org/dc/dcmitype/StillImage" /><dc:title></dc:title></cc:Work></rdf:RDF></metadata><defs
     id="defs6"><clipPath
       clipPathUnits="userSpaceOnUse"
       id="clipPath16"><path
         d="M 0,0 144,0 144,144 0,144 0,0 Z"
         id="path18"
         inkscape:connector-curvature="0" /></clipPath><clipPath
       clipPathUnits="userSpaceOnUse"
       id="clipPath28"><path
         d="M 0,0 144,0 144,144 0,144 0,0 Z"
         id="path30"
         inkscape:connector-curvature="0" /></clipPath><clipPath
       clipPathUnits="userSpaceOnUse"
       id="clipPath40"><path
         d="M 0,0 144,0 144,144 0,144 0,0 Z"
         id="path42"
         inkscape:connector-curvature="0" /></clipPath><clipPath
       clipPathUnits="userSpaceOnUse"
       id="clipPath52"><path
         d="M 0,0 144,0 144,144 0,144 0,0 Z"
         id="path54"
         inkscape:connector-curvature="0" /></clipPath></defs><sodipodi:namedview
     pagecolor="#ffffff"
     bordercolor="#666666"
     borderopacity="1"
     objecttolerance="10"
     gridtolerance="10"
     guidetolerance="10"
     inkscape:pageopacity="0"
     inkscape:pageshadow="2"
     inkscape:window-width="1681"
     inkscape:window-height="823"
     id="namedview4"
     showgrid="false"
     fit-margin-top="0"
     fit-margin-left="0"
     fit-margin-right="0"
     fit-margin-bottom="0"
     inkscape:zoom="1.5922289"
     inkscape:cx="-47.522443"
     inkscape:cy="156.25169"
     inkscape:window-x="0"
     inkscape:window-y="0"
     inkscape:window-maximized="0"
     inkscape:current-layer="g10" /><g
     id="g10"
     inkscape:groupmode="layer"
     inkscape:label="Datum_local"
     transform="matrix(1.25,0,0,-1.25,-7.841249,172.57452)"><g
       id="g12"><g
         id="g14"
         clip-path="url(#clipPath16)"><g
           id="g20"
           transform="translate(36.5158,97.4849)"><path
             d="m 0,0 c 1.123,1.097 3.199,3.147 5.2,4.381 2.001,1.235 4.824,2.088 6.803,3.026 1.98,0.937 3.479,1.988 5.073,2.6 1.593,0.611 1.977,0.759 4.489,1.067 2.512,0.308 7.795,0.503 10.581,0.779 2.786,0.276 3.542,0.934 6.136,0.877 2.593,-0.057 4.782,0.298 9.427,-1.218 4.645,-1.516 14.492,-5.954 18.441,-7.878 3.949,-1.925 3.616,-1.625 5.254,-3.67 1.638,-2.045 3.383,-6.087 4.573,-8.599 1.191,-2.513 2.154,-4.669 2.569,-6.477 0.415,-1.807 -0.204,-2.542 -0.079,-4.367 0.126,-1.824 0.695,-5.304 0.832,-6.578 0.136,-1.275 -0.187,0.54 -0.012,-1.068 0.175,-1.607 1.182,-6.08 1.062,-8.578 -0.12,-2.498 -1.103,-4.745 -1.78,-6.409 -0.678,-1.664 -1.578,-2.616 -2.284,-3.575 -0.707,-0.958 -1.244,-1.255 -1.956,-2.176 -0.713,-0.921 -0.872,-1.889 -2.321,-3.349 -1.449,-1.46 -3.969,-4.193 -6.373,-5.409 -2.403,-1.216 -6.277,-1.279 -8.048,-1.888 -1.771,-0.61 -1.225,-1.369 -2.576,-1.77 -1.35,-0.401 -3.608,-0.52 -5.528,-0.637 -1.919,-0.117 -4.512,0.171 -5.989,-0.066 -1.477,-0.236 -2.067,-0.821 -2.873,-1.355 -0.806,-0.535 -1.132,-1.469 -1.962,-1.854 -0.83,-0.384 -2.146,-0.386 -3.019,-0.453 -0.874,-0.068 -1.714,0.086 -2.223,0.048 -0.51,-0.038 -0.385,-0.094 -0.833,-0.276 -0.447,-0.182 -1.131,-0.381 -1.852,-0.817 -0.722,-0.436 -1.907,-1.388 -2.479,-1.8 -0.572,-0.411 -0.559,-0.54 -0.954,-0.667 -0.394,-0.127 -0.229,-0.339 -1.415,-0.095 -1.185,0.243 -4.409,1.246 -5.698,1.558 -1.288,0.311 -0.628,0.035 -2.034,0.311 -1.407,0.277 -4.72,0.647 -6.403,1.349 -1.682,0.702 -2.859,2.174 -3.693,2.862 -0.834,0.688 -0.698,0.896 -1.312,1.265 -0.613,0.37 -2.369,0.951 -2.369,0.951 -1.682,0.702 -5.887,2.206 -7.726,3.261 -1.839,1.054 -2.035,1.454 -3.31,3.064 -1.276,1.611 -3.26,4.656 -4.343,6.6 -1.083,1.944 -1.67,3.483 -2.156,5.062 -0.486,1.58 -0.522,2.662 -0.759,4.414 -0.237,1.752 -0.599,3.614 -0.662,6.097 -0.062,2.484 0.121,6.729 0.286,8.802 0.166,2.073 0.274,2.022 0.705,3.637 0.432,1.616 1.173,4.456 1.884,6.056 0.711,1.6 1.647,2.612 2.381,3.544 0.734,0.932 1.304,1.451 2.023,2.049 0.719,0.597 1.544,0.965 2.29,1.537 0.746,0.571 1.608,1.285 2.187,1.89 0.579,0.606 0.796,1.074 1.288,1.742 0.492,0.668 0.414,1.103 1.537,2.2"
             style="fill:#4f81bd;fill-opacity:1;fill-rule:evenodd;stroke:none"
             id="path22"
             inkscape:connector-curvature="0" /></g></g></g><g
       id="g24"><g
         id="g26"
         clip-path="url(#clipPath28)"><g
           id="g32"
           transform="translate(21.2948,69.5811)"><path
             d="m 0,0 c 0,22.654 23.079,41.019 51.549,41.019 28.47,0 51.549,-18.365 51.549,-41.019 0,-22.654 -23.079,-41.019 -51.549,-41.019 C 23.079,-41.019 0,-22.654 0,0 Z"
             style="fill:none;stroke:#ff0000;stroke-width:2;stroke-linecap:butt;stroke-linejoin:round;stroke-miterlimit:10;stroke-dasharray:none;stroke-opacity:1"
             id="path34"
             inkscape:connector-curvature="0" /></g></g></g><g
       id="g36"><g
         id="g38"
         clip-path="url(#clipPath40)"><g
           id="g44"
           transform="translate(12,63.8132)"><path
             d="M 0,0 0.139,0.112 0.363,0.391 0.614,0.67 0.976,1.033 1.339,1.452 1.757,1.899 2.231,2.374 2.678,2.849 3.124,3.38 3.598,3.855 4.016,4.301 4.435,4.748 4.797,5.139 5.104,5.503 5.355,5.754 5.522,5.949 4.992,6.564 4.267,7.29 3.514,8.184 2.705,9.078 1.952,9.916 1.311,10.642 0.809,11.201 0.558,11.48 4.658,15.251 5.104,14.664 5.718,13.91 6.359,13.072 7.084,12.15 7.754,11.284 8.367,10.53 8.841,9.916 9.204,9.497 l 0.335,0.419 0.53,0.642 0.641,0.754 0.725,0.894 0.753,0.894 0.697,0.838 0.614,0.726 0.474,0.587 3.821,-3.576 -0.139,-0.167 -0.223,-0.224 -0.307,-0.279 -0.307,-0.363 -0.39,-0.391 L 16.009,9.832 15.563,9.385 15.117,8.938 14.643,8.491 14.252,8.072 13.834,7.653 13.443,7.262 13.081,6.927 12.802,6.62 12.579,6.368 12.411,6.201 12.607,5.977 12.885,5.698 13.22,5.335 13.555,4.944 13.973,4.497 14.392,4.022 14.838,3.519 15.312,3.045 15.758,2.542 16.204,2.095 16.623,1.62 16.958,1.201 17.292,0.866 17.571,0.531 17.766,0.307 17.906,0.196 13.862,-3.659 13.443,-3.128 12.83,-2.402 12.105,-1.536 11.324,-0.531 10.515,0.447 9.762,1.341 9.148,2.123 8.73,2.626 8.395,2.207 7.809,1.48 7.028,0.531 6.248,-0.531 5.411,-1.592 4.63,-2.514 4.044,-3.296 3.709,-3.715 0,0 Z"
             style="fill:#a8a8a8;fill-opacity:1;fill-rule:evenodd;stroke:none"
             id="path46"
             inkscape:connector-curvature="0" /></g></g></g><g
       id="g48"><g
         id="g50"
         clip-path="url(#clipPath52)"><g
           id="g56"
           transform="translate(34.8369,122.2146)"><path
             d="M 0,0 17.849,-24.416"
             style="fill:none;stroke:#000000;stroke-width:2.25;stroke-linecap:butt;stroke-linejoin:round;stroke-miterlimit:10;stroke-dasharray:none;stroke-opacity:1"
             id="path58"
             inkscape:connector-curvature="0" /></g><g
           id="g60"
           transform="translate(51.8812,105.5713)"><path
             d="m 0,0 0.804,-7.773 -7.162,3.126"
             style="fill:none;stroke:#000000;stroke-width:2.25;stroke-linecap:round;stroke-linejoin:miter;stroke-miterlimit:10;stroke-dasharray:none;stroke-opacity:1"
             id="path62"
             inkscape:connector-curvature="0" /></g></g></g><text
       transform="matrix(1,0,0,-1,6.0088,129.6621)"
       style="font-variant:normal;font-weight:normal;font-stretch:normal;font-size:10.02000046px;font-family:'Architects Daughter';-inkscape-font-specification:ArchitectsDaughter;writing-mode:lr-tb;fill:#000000;fill-opacity:1;fill-rule:nonzero;stroke:none"
       id="text64"><tspan
         x="0 8.6372404 15.12018 21.72336 23.6472 30.059999"
         y="0"
         sodipodi:role="line"
         id="tspan66">Geoid </tspan></text>
<g
       id="g68"
       transform="translate(109.5728,18)"><path
         d="M 0,0 -6.457,14.241"
         style="fill:none;stroke:#000000;stroke-width:2.25;stroke-linecap:butt;stroke-linejoin:round;stroke-miterlimit:10;stroke-dasharray:none;stroke-opacity:1"
         id="path70"
         inkscape:connector-curvature="0" /></g><g
       id="g72"
       transform="translate(102.3166,24.4676)"><path
         d="M 0,0 0.799,7.774 7.172,3.252"
         style="fill:none;stroke:#000000;stroke-width:2.25;stroke-linecap:round;stroke-linejoin:miter;stroke-miterlimit:10;stroke-dasharray:none;stroke-opacity:1"
         id="path74"
         inkscape:connector-curvature="0" /></g><text
       transform="matrix(1,0,0,-1,97.3902,7.2153)"
       style="font-variant:normal;font-weight:normal;font-stretch:normal;font-size:10.02000046px;font-family:'Architects Daughter';-inkscape-font-specification:ArchitectsDaughter;writing-mode:lr-tb;fill:#000000;fill-opacity:1;fill-rule:nonzero;stroke:none"
       id="text76"><tspan
         x="0 7.3747201 8.9979601 10.6212 12.54504 18.727381 24.368641 30.971821 32.89566 39.298439"
         y="0"
         sodipodi:role="line"
         id="tspan78">Ellipsoid </tspan></text>
</g></svg>