<?xml version="1.0" encoding="UTF-8" standalone="no"?>
<!-- Created with Inkscape (http://www.inkscape.org/) -->

<svg
   xmlns:dc="http://purl.org/dc/elements/1.1/"
   xmlns:cc="http://creativecommons.org/ns#"
   xmlns:rdf="http://www.w3.org/1999/02/22-rdf-syntax-ns#"
   xmlns:svg="http://www.w3.org/2000/svg"
   xmlns="http://www.w3.org/2000/svg"
   xmlns:sodipodi="http://sodipodi.sourceforge.net/DTD/sodipodi-0.dtd"
   xmlns:inkscape="http://www.inkscape.org/namespaces/inkscape"
   id="svg2"
   version="1.1"
   inkscape:version="0.91 r13725"
   xml:space="preserve"
   width="163.01955"
   height="169.24057"
   viewBox="0 0 163.01955 169.24057"
   sodipodi:docname="Datum_geocentric.svg"><metadata
     id="metadata8"><rdf:RDF><cc:Work
         rdf:about=""><dc:format>image/svg+xml</dc:format><dc:type
           rdf:resource="http://purl.org/dc/dcmitype/StillImage" /><dc:title></dc:title></cc:Work></rdf:RDF></metadata><defs
     id="defs6"><clipPath
       clipPathUnits="userSpaceOnUse"
       id="clipPath16"><path
         d="M 0,0 144,0 144,144 0,144 0,0 Z"
         id="path18"
         inkscape:connector-curvature="0" /></clipPath><clipPath
       clipPathUnits="userSpaceOnUse"
       id="clipPath28"><path
         d="M 0,0 144,0 144,144 0,144 0,0 Z"
         id="path30"
         inkscape:connector-curvature="0" /></clipPath><clipPath
       clipPathUnits="userSpaceOnUse"
       id="clipPath40"><path
         d="M 0,0 144,0 144,144 0,144 0,0 Z"
         id="path42"
         inkscape:connector-curvature="0" /></clipPath><clipPath
       clipPathUnits="userSpaceOnUse"
       id="clipPath52"><path
         d="M 0,0 144,0 144,144 0,144 0,0 Z"
         id="path54"
         inkscape:connector-curvature="0" /></clipPath><clipPath
       clipPathUnits="userSpaceOnUse"
       id="clipPath64"><path
         d="M 0,0 144,0 144,144 0,144 0,0 Z"
         id="path66"
         inkscape:connector-curvature="0" /></clipPath><clipPath
       clipPathUnits="userSpaceOnUse"
       id="clipPath76"><path
         d="M 0,0 144,0 144,144 0,144 0,0 Z"
         id="path78"
         inkscape:connector-curvature="0" /></clipPath></defs><sodipodi:namedview
     pagecolor="#ffffff"
     bordercolor="#666666"
     borderopacity="1"
     objecttolerance="10"
     gridtolerance="10"
     guidetolerance="10"
     inkscape:pageopacity="0"
     inkscape:pageshadow="2"
     inkscape:window-width="1264"
     inkscape:window-height="667"
     id="namedview4"
     showgrid="false"
     fit-margin-top="0"
     fit-margin-left="0"
     fit-margin-right="0"
     fit-margin-bottom="0"
     inkscape:zoom="1.7321167"
     inkscape:cx="76.61847"
     inkscape:cy="75.95785"
     inkscape:window-x="0"
     inkscape:window-y="0"
     inkscape:window-maximized="0"
     inkscape:current-layer="g10" /><g
     id="g10"
     inkscape:groupmode="layer"
     inkscape:label="Datum_geocentric"
     transform="matrix(1.25,0,0,-1.25,-7.841249,172.57452)"><g
       id="g12"><g
         id="g14"
         clip-path="url(#clipPath16)"><g
           id="g20"
           transform="translate(38.7755,106.5768)"><path
             d="m 0,0 c 1.243,1.365 3.544,3.915 5.726,5.486 2.182,1.57 5.22,2.723 7.366,3.937 2.145,1.215 3.787,2.542 5.507,3.348 1.721,0.806 2.136,1.001 4.817,1.486 2.682,0.485 8.303,0.965 11.274,1.425 2.972,0.46 3.805,1.282 6.557,1.334 2.752,0.053 5.093,0.579 9.955,-1.02 4.862,-1.599 15.114,-6.453 19.218,-8.573 4.105,-2.12 3.765,-1.776 5.41,-4.148 1.644,-2.371 3.309,-7.128 4.457,-10.08 1.147,-2.952 2.071,-5.489 2.427,-7.633 0.357,-2.144 -0.335,-3.053 -0.287,-5.231 0.049,-2.178 0.492,-6.316 0.578,-7.835 0.086,-1.519 -0.174,0.638 -0.063,-1.279 0.111,-1.916 0.973,-7.223 0.73,-10.218 -0.243,-2.996 -1.392,-5.731 -2.189,-7.754 -0.796,-2.023 -1.797,-3.205 -2.592,-4.385 -0.795,-1.18 -1.378,-1.56 -2.178,-2.696 -0.8,-1.135 -1.014,-2.301 -2.62,-4.116 -1.607,-1.814 -4.41,-5.203 -7.019,-6.77 -2.609,-1.568 -6.727,-1.823 -8.636,-2.635 -1.908,-0.812 -1.364,-1.695 -2.817,-2.238 -1.453,-0.543 -3.856,-0.79 -5.9,-1.019 -2.044,-0.23 -4.784,-0.005 -6.364,-0.357 -1.58,-0.352 -2.234,-1.078 -3.114,-1.756 -0.881,-0.678 -1.271,-1.811 -2.17,-2.31 -0.9,-0.499 -2.297,-0.562 -3.228,-0.683 -0.931,-0.121 -1.816,0.024 -2.358,-0.045 -0.543,-0.069 -0.413,-0.131 -0.897,-0.37 -0.484,-0.239 -1.219,-0.507 -2.006,-1.063 -0.786,-0.555 -2.089,-1.751 -2.715,-2.269 -0.627,-0.519 -0.619,-0.673 -1.044,-0.844 -0.425,-0.17 -0.26,-0.416 -1.508,-0.18 -1.247,0.237 -4.624,1.287 -5.978,1.6 -1.354,0.313 -0.666,0.013 -2.147,0.279 -1.48,0.266 -4.982,0.555 -6.736,1.317 -1.755,0.761 -2.935,2.47 -3.789,3.254 -0.854,0.785 -0.7,1.04 -1.335,1.453 -0.634,0.414 -2.471,1.029 -2.471,1.029 -1.755,0.762 -6.15,2.367 -8.054,3.543 -1.905,1.176 -2.094,1.646 -3.373,3.515 -1.28,1.868 -3.246,5.421 -4.306,7.697 -1.06,2.276 -1.612,4.092 -2.054,5.959 -0.443,1.868 -0.431,3.162 -0.601,5.248 -0.17,2.086 -0.468,4.298 -0.42,7.267 0.049,2.97 0.442,8.06 0.713,10.549 0.272,2.489 0.385,2.433 0.918,4.386 0.533,1.954 1.452,5.388 2.282,7.336 0.829,1.948 1.871,3.203 2.693,4.353 0.823,1.149 1.453,1.797 2.244,2.546 0.791,0.749 1.684,1.228 2.503,1.946 0.819,0.719 1.768,1.613 2.411,2.365 0.643,0.751 0.895,1.322 1.449,2.144 C -1.181,-1.882 -1.243,-1.365 0,0"
             style="fill:#4f81bd;fill-opacity:1;fill-rule:evenodd;stroke:none"
             id="path22"
             inkscape:connector-curvature="0" /></g></g></g><g
       id="g24"><g
         id="g26"
         clip-path="url(#clipPath28)"><g
           id="g32"
           transform="translate(18,75.5591)"><path
             d="M 0,0 C 0,27.443 24.177,49.69 54,49.69 83.823,49.69 108,27.443 108,0 108,-27.443 83.823,-49.69 54,-49.69 24.177,-49.69 0,-27.443 0,0 Z"
             style="fill:none;stroke:#ff0000;stroke-width:2;stroke-linecap:butt;stroke-linejoin:round;stroke-miterlimit:10;stroke-dasharray:none;stroke-opacity:1"
             id="path34"
             inkscape:connector-curvature="0" /></g></g></g><g
       id="g36"><g
         id="g38"
         clip-path="url(#clipPath40)"><g
           id="g44"
           transform="translate(72,125.2495)"><path
             d="M 0,0 0,-99.381"
             style="fill:none;stroke:#000000;stroke-width:0.75;stroke-linecap:butt;stroke-linejoin:round;stroke-miterlimit:10;stroke-dasharray:2.25, 0.75;stroke-dashoffset:0;stroke-opacity:1"
             id="path46"
             inkscape:connector-curvature="0" /></g></g></g><g
       id="g48"><g
         id="g50"
         clip-path="url(#clipPath52)"><g
           id="g56"
           transform="translate(18,75.5591)"><path
             d="M 0,0 108,0"
             style="fill:none;stroke:#000000;stroke-width:0.75;stroke-linecap:butt;stroke-linejoin:round;stroke-miterlimit:10;stroke-dasharray:2.25, 0.75;stroke-dashoffset:0;stroke-opacity:1"
             id="path58"
             inkscape:connector-curvature="0" /></g></g></g><g
       id="g60"><g
         id="g62"
         clip-path="url(#clipPath64)"><g
           id="g68"
           transform="translate(63.5299,67.7404)"><path
             d="M 0,0 0.146,0.135 0.38,0.474 0.643,0.812 1.023,1.252 1.402,1.76 1.841,2.301 2.337,2.876 2.805,3.451 3.272,4.094 3.769,4.669 4.207,5.211 4.645,5.752 5.025,6.226 5.347,6.666 5.61,6.97 5.785,7.207 5.23,7.952 4.47,8.831 3.681,9.914 l -0.847,1.083 -0.789,1.015 -0.672,0.88 -0.526,0.676 -0.263,0.339 4.295,4.568 0.468,-0.711 0.642,-0.913 0.672,-1.015 0.76,-1.117 0.701,-1.049 0.643,-0.914 0.497,-0.744 0.38,-0.508 0.35,0.508 0.555,0.778 0.672,0.914 0.76,1.083 0.789,1.082 0.73,1.015 0.643,0.88 0.497,0.711 L 18.64,14.144 18.494,13.941 18.26,13.67 17.939,13.332 17.618,12.892 17.209,12.418 16.77,11.91 16.303,11.369 15.835,10.828 15.339,10.286 14.93,9.779 14.492,9.271 14.082,8.798 13.703,8.391 13.41,8.019 13.177,7.715 13.001,7.512 l 0.205,-0.271 0.292,-0.338 0.351,-0.44 0.35,-0.474 0.439,-0.541 0.438,-0.576 0.467,-0.609 0.497,-0.575 0.467,-0.609 0.468,-0.541 0.438,-0.575 0.351,-0.508 0.35,-0.406 0.293,-0.406 0.204,-0.271 0.146,-0.135 -4.236,-4.67 -0.439,0.643 -0.642,0.88 -0.76,1.049 -0.818,1.218 L 11.015,0.541 10.226,1.624 9.583,2.572 9.145,3.181 8.794,2.673 8.181,1.793 7.363,0.643 6.545,-0.643 5.668,-1.929 4.85,-3.045 4.236,-3.993 3.886,-4.5 0,0 Z"
             style="fill:#f4f3ec;fill-opacity:1;fill-rule:evenodd;stroke:none"
             id="path70"
             inkscape:connector-curvature="0" /></g></g></g><g
       id="g72"><g
         id="g74"
         clip-path="url(#clipPath76)"><g
           id="g80"
           transform="translate(109.5728,18)"><path
             d="M 0,0 -6.457,14.241"
             style="fill:none;stroke:#000000;stroke-width:2.25;stroke-linecap:butt;stroke-linejoin:round;stroke-miterlimit:10;stroke-dasharray:none;stroke-opacity:1"
             id="path82"
             inkscape:connector-curvature="0" /></g><g
           id="g84"
           transform="translate(102.3166,24.4676)"><path
             d="M 0,0 0.799,7.774 7.172,3.252"
             style="fill:none;stroke:#000000;stroke-width:2.25;stroke-linecap:round;stroke-linejoin:miter;stroke-miterlimit:10;stroke-dasharray:none;stroke-opacity:1"
             id="path86"
             inkscape:connector-curvature="0" /></g></g></g><text
       transform="matrix(1,0,0,-1,97.3902,7.2153)"
       style="font-variant:normal;font-weight:normal;font-stretch:normal;font-size:10.02000046px;font-family:'Architects Daughter';-inkscape-font-specification:ArchitectsDaughter;writing-mode:lr-tb;fill:#000000;fill-opacity:1;fill-rule:nonzero;stroke:none"
       id="text88"><tspan
         x="0 7.3747201 8.9979601 10.6212 12.54504 18.727381 24.368641 30.971821 32.89566 39.298439"
         y="0"
         sodipodi:role="line"
         id="tspan90">Ellipsoid </tspan></text>
<g
       id="g92"
       transform="translate(34.8369,122.2146)"><path
         d="M 0,0 17.701,-20.335"
         style="fill:none;stroke:#000000;stroke-width:2.25;stroke-linecap:butt;stroke-linejoin:round;stroke-miterlimit:10;stroke-dasharray:none;stroke-opacity:1"
         id="path94"
         inkscape:connector-curvature="0" /></g><g
       id="g96"
       transform="translate(51.076,109.5568)"><path
         d="M 0,0 1.462,-7.677 -5.94,-5.17"
         style="fill:none;stroke:#000000;stroke-width:2.25;stroke-linecap:round;stroke-linejoin:miter;stroke-miterlimit:10;stroke-dasharray:none;stroke-opacity:1"
         id="path98"
         inkscape:connector-curvature="0" /></g><text
       transform="matrix(1,0,0,-1,6.0088,129.6621)"
       style="font-variant:normal;font-weight:normal;font-stretch:normal;font-size:10.02000046px;font-family:'Architects Daughter';-inkscape-font-specification:ArchitectsDaughter;writing-mode:lr-tb;fill:#000000;fill-opacity:1;fill-rule:nonzero;stroke:none"
       id="text100"><tspan
         x="0 8.6372404 15.12018 21.72336 23.6472 30.059999"
         y="0"
         sodipodi:role="line"
         id="tspan102">Geoid </tspan></text>
</g></svg>